<svg width="88" height="88" viewBox="0 0 88 88" fill="none" xmlns="http://www.w3.org/2000/svg">
<g clip-path="url(#clip0_16_75)" filter="url(#filter0_d_16_75)">
<path d="M53.5968 18.7992L52.7127 19.5806C52.7127 19.5806 48.1973 28.2733 44.884 34.7446C45.6128 36.2072 46.269 37.5295 46.7799 38.5763L53.5968 18.7992Z" fill="#F6F3E3"/>
<path d="M41.4405 41.594C38.6531 46.9985 32.7779 49.2625 32.3521 49.4227C30.3812 49.876 28.6782 51.4863 28.012 53.6702C27.5462 55.1828 27.6339 56.7656 28.2449 58.1305C28.8785 59.5404 29.9905 60.5547 31.3804 60.978C31.8287 61.1182 32.2945 61.1858 32.7653 61.1908C35.2096 61.2109 37.4711 59.4027 38.2675 56.8082C38.2675 56.7981 38.2675 56.7856 38.2725 56.7756C38.2825 56.8006 38.285 56.8157 38.285 56.8157L43.6845 41.1032L43.692 41.0982L42.0741 40.2817C41.7135 41.0055 41.4831 41.4788 41.4405 41.594ZM36.6071 56.3023C36.0336 58.1705 34.4608 59.4678 32.7829 59.4553C32.4798 59.4553 32.1793 59.4027 31.8938 59.3176C30.9897 59.0421 30.261 58.3684 29.8352 57.4242C29.3944 56.4375 29.3393 55.2855 29.6774 54.1761C30.2509 52.3028 31.8237 51.008 33.5016 51.018C33.8047 51.023 34.1002 51.0706 34.3907 51.1583C35.2898 51.4338 36.0235 52.1074 36.4493 53.0516C36.8876 54.0358 36.9427 55.1878 36.6071 56.3023Z" fill="#F6F3E3"/>
<path d="M56.1938 49.6532C55.5627 49.3927 50.0406 46.971 47.4636 41.6141C47.1705 40.705 36.4017 19.3877 36.4017 19.3877L35.5452 18.6589L42.4323 39.6381L45.2372 41.0556L50.1432 56.5978C50.1683 56.7005 50.1908 56.8032 50.2159 56.9084C50.9447 59.5605 53.1861 61.4263 55.6529 61.4463C56.1012 61.4488 56.547 61.3937 56.9802 61.271C58.3802 60.8878 59.5247 59.9086 60.1908 58.5162C60.842 57.1663 60.9722 55.5835 60.5515 54.0584C59.9304 51.8019 58.2149 50.1215 56.1938 49.6532ZM44.0376 39.3677C43.5317 39.3652 43.1285 38.9519 43.1285 38.4461C43.1335 37.9377 43.5442 37.5345 44.0526 37.5395C44.5585 37.542 44.9667 37.9552 44.9617 38.4611C44.9567 38.9695 44.5435 39.3752 44.0376 39.3677ZM58.6306 57.7599C58.1798 58.6915 57.431 59.3426 56.5219 59.5931C56.2414 59.6657 55.9534 59.7033 55.6654 59.7008C53.9649 59.6882 52.4122 58.3509 51.8888 56.4426C51.5808 55.3231 51.6659 54.1711 52.1392 53.1994C52.59 52.2678 53.3388 51.6166 54.2529 51.3662C54.5259 51.291 54.8189 51.251 55.1019 51.2535C56.8049 51.271 58.3551 52.6083 58.8835 54.5167C59.1891 55.6386 59.0989 56.7882 58.6306 57.7599Z" fill="#F6F3E3"/>
<path d="M81.4956 41.6166C81.5232 41.0957 81.5783 40.5823 81.5783 40.0514C81.5783 39.5806 81.5257 39.1248 81.5056 38.6565C81.691 37.7524 82.1493 36.8283 82.585 35.9718C83.0158 35.0176 83.4666 34.1611 83.5642 33.6777C83.9574 32.0749 83.0258 31.1108 81.999 30.4872C81.2677 30.0339 80.4964 29.7383 80.018 29.4053C79.7476 28.4862 79.417 27.5871 79.0764 26.7005C78.9787 25.7414 79.0714 24.692 79.1515 23.7328C79.2792 22.676 79.442 21.7093 79.3919 21.2134C78.9311 18.401 75.966 18.689 74.5735 18.3409C74.0175 17.5645 73.4516 16.7982 72.8405 16.0669C71.9264 14.3389 71.8462 11.6367 71.3454 10.8328C70.0882 8.23572 67.3008 9.56554 65.8908 9.6557C65.1094 9.09722 64.308 8.57631 63.4891 8.08295C62.1192 6.64042 61.0724 4.2813 60.3937 3.57506C59.2642 2.38047 57.9194 2.68851 56.86 3.14932C56.0837 3.4849 55.4175 3.97827 54.8665 4.2262C53.9023 3.9382 52.9256 3.68275 51.9314 3.47238C50.2059 2.59585 48.5254 0.659959 47.6689 0.291814C46.2064 -0.376856 45.0443 0.219187 44.1928 1.00556C43.5718 1.62665 43.0984 2.32036 42.6627 2.72858C41.6734 2.76865 40.6867 2.82625 39.7175 2.94145C37.7766 2.72107 35.5101 1.34866 34.5735 1.32362C32.9582 1.12076 32.0416 2.02485 31.5182 3.1418C31.13 3.91816 30.9021 4.72207 30.6116 5.23547C29.71 5.59109 28.831 5.98177 27.9619 6.4C26.011 6.76064 23.4691 6.34741 22.5099 6.53274C20.8871 6.82825 20.4112 8.12051 20.2259 9.25751C20.0781 10.0965 20.1307 10.9404 20.0306 11.534C19.2717 12.1751 18.5329 12.8363 17.8292 13.535C16.1663 14.5317 13.5517 14.8348 12.8054 15.3882C10.3461 16.8834 11.8713 19.5255 12.0892 20.9329C11.5933 21.7594 11.1325 22.6034 10.6992 23.4724C10.1057 24.1961 9.22915 24.7947 8.46031 25.3607C7.61883 25.9943 6.81743 26.5327 6.49687 26.9109C5.3699 28.128 5.79064 29.4428 6.36163 30.4646C6.79489 31.2109 7.30579 31.832 7.58127 32.3529C7.38092 33.3096 7.24318 34.2863 7.11545 35.268C6.32657 37.0837 4.66867 38.9645 4.24794 39.8561C3.33384 42.5307 6.02104 43.6978 7.09041 44.667C7.21563 45.6737 7.35337 46.6855 7.55873 47.6672C7.46607 49.5931 6.30153 51.9071 6.36163 52.8263C6.27148 55.7013 9.30929 55.8766 10.6141 56.4526C11.0373 57.3266 11.4956 58.1731 11.984 59.0021C12.267 59.8936 12.297 60.9555 12.3446 61.9172C12.4147 62.9665 12.4298 63.9332 12.57 64.404C12.9757 66.0143 14.3005 66.375 15.4701 66.4601C16.3366 66.5127 17.1355 66.4175 17.7265 66.4726C18.4127 67.1588 19.1465 67.805 19.8853 68.4361C21.0048 70.0564 21.6083 72.5783 22.1693 73.3647C23.1435 74.6545 24.4458 74.6795 25.5728 74.389C26.4192 74.136 27.1731 73.7479 27.7491 73.6076C28.6231 74.0359 29.5096 74.4391 30.4187 74.8047C31.1826 75.3281 31.8663 76.1095 32.4773 76.8658C33.166 77.6772 33.7821 78.391 34.1878 78.684C34.8465 79.1573 35.4926 79.3076 36.0887 79.2575C36.6922 79.1623 37.2457 78.8718 37.739 78.5287C38.4478 78.0404 39.0288 77.4443 39.5222 77.1313C40.4864 77.254 41.4581 77.3166 42.4473 77.3692C44.3256 77.9953 46.3441 79.5455 47.2682 79.8335C48.8335 80.387 49.8653 79.4353 50.574 78.5287C51.0874 77.85 51.4505 77.1238 51.8137 76.6605C52.7954 76.4551 53.7496 76.1921 54.7012 75.9142C56.6597 75.8741 59.0689 76.7281 60.0281 76.6955C61.6359 76.5828 62.3722 75.5009 62.7428 74.4015C62.9983 73.555 63.0809 72.7085 63.2762 72.1451C64.0802 71.6617 64.8841 71.1583 65.6529 70.6199C66.5294 70.2342 67.5813 70.0664 68.583 69.9713C69.6399 69.8285 70.579 69.7108 71.0373 69.533C72.585 68.9745 72.9031 67.6898 72.8555 66.4751C72.8305 65.6086 72.6552 64.7922 72.6727 64.2087C73.2838 63.4924 73.8497 62.7361 74.4007 61.9723C74.7413 61.6868 75.1044 61.4188 75.5202 61.1909C75.9785 60.8979 76.4693 60.6374 76.9477 60.4045C77.9018 59.9337 78.8009 59.543 79.1891 59.23C81.2928 57.3066 79.4495 54.9875 78.9737 53.6302C79.3318 52.7236 79.6699 51.8095 79.9579 50.8728C80.9121 49.1774 83.1059 47.6572 83.4891 46.8057C84.9642 44.3439 82.3772 42.7461 81.4956 41.6166ZM44.1753 73.3271C25.8282 73.3271 10.8996 58.401 10.8996 40.0514C10.8996 21.7043 25.8257 6.77566 44.1753 6.77566C62.5249 6.77566 77.4536 21.7068 77.4536 40.0539C77.4536 58.401 62.5274 73.3271 44.1753 73.3271Z" fill="#F6F3E3"/>
<path d="M44.4007 8.57629C27.0704 8.57629 12.9757 22.6735 12.9757 40.0038C12.9757 57.3291 27.0704 71.4288 44.4007 71.4288C61.731 71.4288 75.8282 57.3291 75.8282 40.0038C75.8282 22.6735 61.731 8.57629 44.4007 8.57629ZM44.4007 69.4153C28.1823 69.4153 14.9867 56.2197 14.9867 40.0063C14.9867 23.7854 28.1848 10.5898 44.4007 10.5898C60.6216 10.5898 73.8147 23.7879 73.8147 40.0063C73.8147 56.2197 60.6191 69.4153 44.4007 69.4153Z" fill="#F6F3E3"/>
</g>
<defs>
<filter id="filter0_d_16_75" x="0" y="0" width="88" height="88" filterUnits="userSpaceOnUse" color-interpolation-filters="sRGB">
<feFlood flood-opacity="0" result="BackgroundImageFix"/>
<feColorMatrix in="SourceAlpha" type="matrix" values="0 0 0 0 0 0 0 0 0 0 0 0 0 0 0 0 0 0 127 0" result="hardAlpha"/>
<feOffset dy="4"/>
<feGaussianBlur stdDeviation="2"/>
<feComposite in2="hardAlpha" operator="out"/>
<feColorMatrix type="matrix" values="0 0 0 0 0 0 0 0 0 0 0 0 0 0 0 0 0 0 0.25 0"/>
<feBlend mode="normal" in2="BackgroundImageFix" result="effect1_dropShadow_16_75"/>
<feBlend mode="normal" in="SourceGraphic" in2="effect1_dropShadow_16_75" result="shape"/>
</filter>
<clipPath id="clip0_16_75">
<rect width="80" height="80" fill="white" transform="translate(4)"/>
</clipPath>
</defs>
</svg>
